<!DOCTYPE svg PUBLIC "-//W3C//DTD SVG 1.1//EN" "http://www.w3.org/Graphics/SVG/1.1/DTD/svg11.dtd">
<!-- Uploaded to: SVG Repo, www.svgrepo.com, Transformed by: SVG Repo Mixer Tools -->
<svg width="800px" height="800px" viewBox="0 0 960 960" fill="none" xmlns="http://www.w3.org/2000/svg">
<g id="SVGRepo_bgCarrier" stroke-width="0"/>
<g id="SVGRepo_tracerCarrier" stroke-linecap="round" stroke-linejoin="round"/>
<g id="SVGRepo_iconCarrier"> <path d="M288.152 601.937C235.508 648.585 186.371 697.952 125.625 734.413C111.419 743.165 90.7952 749.824 77.6772 735.402C64.1912 721.346 72.1022 702.174 81.1212 688.141C101.503 654.411 124.094 622.858 141.343 587.191C47.6342 564.087 59.8662 456.485 63.0542 381.043C66.6162 335.86 67.3062 289.3 84.4522 246.693C101.449 200.566 155.143 183.149 200.546 183.337C283.164 184.776 366.069 183.412 448.502 189.393C508.4 194.593 549.683 215.707 551.359 281.719C651.904 295.35 837.843 249.561 858.103 390.532C865.276 474.837 876.494 562.407 855.593 645.387C847.723 675.09 824.337 689.923 794.989 695.472C805.309 744.198 825.228 791.747 827.661 841.657C819.599 906.598 758.553 852.216 732.715 830.401C696.052 799.562 660.102 767.875 623.816 736.586C607.999 725.794 594.905 703.488 573.228 709.022C470.104 728.478 295.381 747.847 288.152 601.937ZM776.462 805.791C768.851 770.898 757.575 737.428 747.995 703.061C736.306 669.856 760.776 651.597 791.28 648.092C803.766 646.289 810.679 638.693 812.659 626.889C826.961 552.663 819.148 476.441 812.425 401.738C809.022 364.359 795.247 352.038 759.638 342.271C646.582 321.815 531.414 338.531 417.271 337.747C355.033 336.982 346.643 391.616 340.669 441.286C337.722 467.047 335.914 492.992 334.895 518.909C335.212 568.903 320.991 650.464 383.603 667.251C399.509 671.526 416.248 673.898 432.722 674.623C680.438 670.11 537.715 611.587 776.462 805.791ZM509.44 282.274C509.211 261.272 501.877 242.03 476.784 238.182C388.558 223.485 298.609 231.041 209.553 228.638C104.272 226.571 118.669 303.373 110.248 382.076C109.046 416.793 108.837 451.687 110.949 486.338C113.085 521.381 124.286 532.649 157.993 541.765C219.46 557.324 176.578 620.21 158.496 655.172C192.52 635.068 249.987 554.904 286.385 553.847C299.573 361.389 281.296 281.152 509.44 282.274Z" fill="#e7e4f3"/> <path d="M381.812 912.166C384.332 886.627 386.926 861.095 389.337 835.546C392.399 813.01 385.982 769.893 418.518 770.771C432.298 771.684 443.014 783.77 441.451 799.346C437.004 843.66 431.811 887.903 426.521 932.127C425.261 942.658 416.409 950.034 406.478 950.591C384.788 951.439 381.399 929.563 383.104 912.246C382.674 912.219 382.243 912.192 381.812 912.166Z" fill="#e7e4f3"/> <path d="M662.318 76.9453C701.308 79.7963 687.961 111.481 674.755 132.921C662.968 157.178 651.4 181.542 639.468 205.727C633.921 218.733 621.681 234.86 606.215 226.734C593.692 221.039 592.996 204.979 598.626 193.723C613.997 159.482 629.384 125.246 645.132 91.1763C649.187 82.4053 656.428 77.1173 662.318 76.9453Z" fill="#e7e4f3"/> <path d="M535.355 149.796C537.399 175.376 505.714 184.733 495.989 162.349C488.124 141.998 480.836 121.366 474.601 100.464C466.813 73.1709 508.647 59.3279 519.143 85.8289C527.196 105.465 530.789 130.768 535.355 149.796Z" fill="#e7e4f3"/> <path d="M313.174 748.827C308.023 764.425 290.39 778.041 277.302 788.394C254.765 807.387 225.564 778.1 245.09 755.863C253.585 745.625 262.845 735.864 272.769 727.015C289.17 712.867 314.404 724.26 313.174 748.827Z" fill="#e7e4f3"/> <path d="M700.688 260.833C675.835 259.659 671.395 227.766 693.338 218.132C713.226 208.978 746.743 180.459 762.054 208.561C767.533 219.662 762.544 232.768 749.639 239.475C733.591 247.119 718.096 256.639 700.688 260.833Z" fill="#e7e4f3"/> <path d="M570.949 817.842C571.008 842.084 538.873 847.73 527.925 827.798C515.494 809.07 493.098 779.059 520.202 763.102C532.691 756.197 548.894 760.697 555.684 774.516C561.476 788.305 568.741 803.042 570.949 817.842Z" fill="#e7e4f3"/> <path d="M776.463 805.79C537.624 611.55 680.564 670.122 432.724 674.626C416.248 673.898 399.51 671.525 383.606 667.25C320.918 650.441 335.33 568.927 334.894 518.91C335.915 492.992 337.722 467.047 340.668 441.285C346.699 391.737 354.913 336.957 417.273 337.753C531.415 338.529 646.58 321.819 759.639 342.268C795.217 352.087 809.038 364.329 812.423 401.739C819.154 476.438 826.958 552.666 812.662 626.889C810.68 638.693 803.767 646.289 791.28 648.091C760.67 651.53 736.4 669.919 747.997 703.062C757.579 737.433 768.844 770.882 776.463 805.79Z" fill="white"/> <path d="M509.442 282.274C281.049 281.106 299.61 361.791 286.388 553.847C250.056 554.857 192.452 635.124 158.499 655.172C176.569 620.286 219.466 557.286 157.994 541.765C124.289 532.649 113.088 521.381 110.952 486.338C108.84 451.687 109.049 416.793 110.251 382.075C118.677 303.414 104.262 226.561 209.555 228.643C298.612 231.04 388.557 223.487 476.786 238.18C501.879 242.031 509.213 261.272 509.442 282.274Z" fill="#e7e4f3"/> </g>
</svg>